<?xml version="1.0" encoding="UTF-8"?><svg id="Layer_2" xmlns="http://www.w3.org/2000/svg" viewBox="0 0 234.38 90.91"><defs><style>.cls-1{fill:#fff;}</style></defs><g id="Layer_1-2"><g><path class="cls-1" d="M23.04,.13L14.38,16.3v9.74h-5.41v-9.74L0,.13H6.38l5.38,11.29L16.91,.13h6.13Z"/><path class="cls-1" d="M41.47,16.06V.13h5.5v15.93c0,2.75-.43,4.9-1.28,6.43-1.59,2.81-4.63,4.22-9.12,4.22s-7.54-1.41-9.14-4.22c-.86-1.54-1.28-3.68-1.28-6.43V.13h5.5v15.93c0,1.78,.21,3.08,.63,3.9,.66,1.45,2.09,2.18,4.29,2.18s3.62-.73,4.27-2.18c.42-.82,.63-2.12,.63-3.9Z"/><path class="cls-1" d="M76.25,25.9l-6.96,.09-8.14-11.22-2.55,2.69,.11,8.67-5.33,.07-.32-25.91,5.33-.07,.13,10.67L68.39,.09l7-.09-10.49,10.8,11.35,15.1Z"/><path class="cls-1" d="M75.39,33.28l-8.67,16.17v9.74h-5.41v-9.74l-8.96-16.17h6.38l5.38,11.29,5.15-11.29h6.13Z"/><path class="cls-1" d="M58.13,89.91h-5.04v-25.91h7.88l4.71,20.37,4.68-20.37h7.79v25.91h-5.04v-17.53c0-.5,0-1.21,.02-2.12s.02-1.61,.02-2.1l-4.9,21.74h-5.26l-4.87-21.74c0,.49,0,1.19,.02,2.1s.02,1.62,.02,2.12v17.53Z"/><path class="cls-1" d="M138.12,89.91h-5.04v-25.91h7.88l4.71,20.37,4.68-20.37h7.79v25.91h-5.04v-17.53c0-.5,0-1.21,.02-2.12s.02-1.61,.02-2.1l-4.9,21.74h-5.26l-4.87-21.74c0,.49,0,1.19,.02,2.1s.02,1.62,.02,2.12v17.53Z"/><path class="cls-1" d="M174.61,90.91c-3.7,0-6.53-1.01-8.49-3.02-2.62-2.47-3.94-6.04-3.94-10.69s1.31-8.31,3.94-10.69c1.96-2.02,4.79-3.02,8.49-3.02s6.53,1.01,8.49,3.02c2.61,2.38,3.92,5.94,3.92,10.69s-1.31,8.21-3.92,10.69c-1.96,2.02-4.79,3.02-8.49,3.02Zm5.12-6.96c1.25-1.58,1.88-3.83,1.88-6.75s-.63-5.15-1.89-6.74-2.96-2.38-5.11-2.38-3.86,.79-5.13,2.37-1.92,3.83-1.92,6.75,.64,5.17,1.92,6.75,2.99,2.37,5.13,2.37,3.85-.79,5.12-2.37Z"/><path class="cls-1" d="M208.98,64v4.59h-7.75v21.32h-5.45v-21.32h-7.79v-4.59h20.99Z"/><path class="cls-1" d="M221.97,90.91c-3.7,0-6.53-1.01-8.49-3.02-2.62-2.47-3.94-6.04-3.94-10.69s1.31-8.31,3.94-10.69c1.96-2.02,4.79-3.02,8.49-3.02s6.53,1.01,8.49,3.02c2.61,2.38,3.92,5.94,3.92,10.69s-1.31,8.21-3.92,10.69c-1.96,2.02-4.79,3.02-8.49,3.02Zm5.12-6.96c1.25-1.58,1.88-3.83,1.88-6.75s-.63-5.15-1.89-6.74-2.96-2.38-5.11-2.38-3.86,.79-5.13,2.37-1.92,3.83-1.92,6.75,.64,5.17,1.92,6.75,2.99,2.37,5.13,2.37,3.85-.79,5.12-2.37Z"/><polygon class="cls-1" points="106.96 .28 100.84 .28 91.59 26.19 97.26 26.19 99.05 20.86 100.59 16.11 100.6 16.11 103.85 6.2 107.08 16.4 108.59 20.86 110.26 26.19 116.13 26.19 106.96 .28"/><polygon class="cls-1" points="107.96 64 101.84 64 92.59 89.91 98.26 89.91 100.05 84.58 101.59 79.83 101.6 79.83 104.85 69.92 108.08 80.12 109.59 84.58 111.26 89.91 117.13 89.91 107.96 64"/><polygon class="cls-1" points="106.96 33.28 100.84 33.28 91.59 59.19 97.26 59.19 99.05 53.86 100.59 49.11 100.6 49.11 103.85 39.2 107.08 49.4 108.59 53.86 110.26 59.19 116.13 59.19 106.96 33.28"/></g></g></svg>